<svg width="8" height="13" viewBox="0 0 8 13" fill="none" xmlns="http://www.w3.org/2000/svg">
<path d="M6.7158 0.295798C6.62284 0.20207 6.51223 0.127676 6.39038 0.0769072C6.26852 0.0261385 6.13781 0 6.0058 0C5.87379 0 5.74308 0.0261385 5.62122 0.0769072C5.49936 0.127676 5.38876 0.20207 5.2958 0.295798L0.295798 5.2958C0.20207 5.38876 0.127676 5.49936 0.0769069 5.62122C0.0261382 5.74308 0 5.87379 0 6.0058C0 6.13781 0.0261382 6.26852 0.0769069 6.39038C0.127676 6.51223 0.20207 6.62284 0.295798 6.7158L5.2958 11.7158C5.38876 11.8095 5.49936 11.8839 5.62122 11.9347C5.74308 11.9855 5.87379 12.0116 6.0058 12.0116C6.13781 12.0116 6.26852 11.9855 6.39038 11.9347C6.51223 11.8839 6.62284 11.8095 6.7158 11.7158C6.80953 11.6228 6.88392 11.5122 6.93469 11.3904C6.98546 11.2685 7.0116 11.1378 7.0116 11.0058C7.0116 10.8738 6.98546 10.7431 6.93469 10.6212C6.88392 10.4994 6.80953 10.3888 6.7158 10.2958L2.4158 6.0058L6.7158 1.7158C6.80953 1.62284 6.88392 1.51223 6.93469 1.39038C6.98546 1.26852 7.0116 1.13781 7.0116 1.0058C7.0116 0.873786 6.98546 0.743081 6.93469 0.621222C6.88392 0.499362 6.80953 0.388761 6.7158 0.295798Z" fill="black"/>
</svg>
