<svg width="105" height="105" viewBox="0 0 105 105" fill="none" xmlns="http://www.w3.org/2000/svg">
<path d="M43.75 22.6275C43.75 16.5462 36.8507 11.7206 28.4375 13.125C16.0869 15.1812 10.4432 39.4012 10.9375 43.75C11.2875 46.8256 18.4844 51.2837 26.9325 48.125C32.4494 46.06 35.5075 41.7812 37.1875 37.1875M62.4182 22.6275C62.4182 16.5462 69.3175 11.7206 77.7307 13.125C90.0813 15.1812 95.725 39.4012 95.2307 43.75C94.8807 46.8256 87.6838 51.2837 79.2357 48.125C73.7188 46.06 71.12 41.7812 69.44 37.1875M35 61.25V63.4375M70 61.25V63.4375M49.2188 71.0937H55.7813L52.5 74.375L49.2188 71.0937Z" stroke="#77208C" stroke-width="8.75" stroke-linecap="round" stroke-linejoin="round"/>
<path d="M19.3375 49.2055C18.1153 53.934 17.4979 58.7984 17.5 63.6824C17.5 81.9349 33.1713 91.8749 52.5 91.8749C71.8288 91.8749 87.5 81.9349 87.5 63.6824C87.5 59.0405 86.7913 54.0574 85.3431 49.2055M44.905 22.5967C47.4073 22.1108 49.9509 21.8691 52.5 21.8749C55.9125 21.8749 59.0625 22.3474 61.9544 23.2136" stroke="#77208C" stroke-width="8.75" stroke-linecap="round" stroke-linejoin="round"/>
</svg>
