<svg width="100" height="100" viewBox="0 0 100 100" fill="none" xmlns="http://www.w3.org/2000/svg">
<path d="M34.7919 12.5001C39.7085 11.7917 44.9169 17.1667 46.4169 24.5834C47.9169 31.9584 45.2085 38.5417 40.2919 39.2917C35.4169 40.0417 30.1669 34.6667 28.6252 27.2501C27.0835 19.8751 29.8752 13.2917 34.7919 12.5001ZM64.5835 12.5001C69.5419 13.2917 72.2919 19.8751 70.8335 27.2501C69.2502 34.6667 64.0419 40.0417 59.1252 39.2917C54.1669 38.5417 51.4585 31.9584 53.0002 24.5834C54.5002 17.1667 59.7085 11.7917 64.5835 12.5001ZM12.5002 31.6667C17.2502 29.6251 23.7085 33.3334 27.0835 39.7917C30.2502 46.3751 29.1669 53.2917 24.4585 55.3334C19.7502 57.3751 13.3335 53.7084 10.0419 47.1667C6.7502 40.6251 7.91687 33.6667 12.5002 31.6667ZM87.5002 31.6667C92.0835 33.6667 93.2502 40.6251 89.9585 47.1667C86.6669 53.7084 80.2502 57.3751 75.5419 55.3334C70.8335 53.2917 69.7502 46.3751 72.9169 39.7917C76.2919 33.3334 82.7502 29.6251 87.5002 31.6667ZM80.5419 76.5834C80.7085 80.5001 77.7085 84.8334 74.1252 86.4584C66.6669 89.8751 57.8335 82.7917 49.5419 82.7917C41.2502 82.7917 32.3335 90.1667 25.0002 86.4584C20.8335 84.4167 17.9585 79.0001 18.5002 74.5001C19.2502 68.2917 26.7085 64.9584 31.1252 60.4167C37.0002 54.5417 41.1669 43.5001 49.5419 43.5001C57.8752 43.5001 62.2919 54.3751 67.9169 60.4167C72.5419 65.5001 80.2502 69.7917 80.5419 76.5834Z" fill="#77208C"/>
</svg>
