<svg width="107" height="107" viewBox="0 0 107 107" fill="none" xmlns="http://www.w3.org/2000/svg">
<path d="M22.2914 26.75H84.7081C87.1602 26.75 89.1665 24.7438 89.1665 22.2917C89.1665 19.8396 87.1602 17.8334 84.7081 17.8334H22.2914C19.8394 17.8334 17.8331 19.8396 17.8331 22.2917C17.8331 24.7438 19.8394 26.75 22.2914 26.75ZM89.8798 34.775C89.4785 32.7242 87.6506 31.2084 85.5106 31.2084H21.4889C19.3489 31.2084 17.521 32.7242 17.1198 34.775L12.6614 57.0667C12.1264 59.8309 14.2219 62.4167 17.0306 62.4167H17.8331V84.7084C17.8331 87.1605 19.8394 89.1667 22.2914 89.1667H57.9581C60.4102 89.1667 62.4165 87.1605 62.4165 84.7084V62.4167H80.2498V84.7084C80.2498 87.1605 82.256 89.1667 84.7081 89.1667C87.1602 89.1667 89.1665 87.1605 89.1665 84.7084V62.4167H89.969C92.7777 62.4167 94.8731 59.8309 94.3381 57.0667L89.8798 34.775ZM53.4998 80.25H26.7498V62.4167H53.4998V80.25Z" fill="#77208C"/>
</svg>
